<?xml version="1.0" standalone="no"?>
<!DOCTYPE svg PUBLIC "-//W3C//DTD SVG 20010904//EN"
 "http://www.w3.org/TR/2001/REC-SVG-20010904/DTD/svg10.dtd">
<svg version="1.0" xmlns="http://www.w3.org/2000/svg"
 width="3303.000000pt" height="3303.000000pt" viewBox="0 0 3303.000000 3303.000000"
 preserveAspectRatio="xMidYMid meet">
<metadata>
Created by potrace 1.11, written by Peter Selinger 2001-2013
</metadata>
<g transform="translate(0.000000,3303.000000) scale(0.100000,-0.100000)"
fill="#000000" stroke="none">
<path d="M802 22610 c-17 -5 -17 -11 14 -135 17 -71 50 -206 72 -300 23 -93
67 -273 98 -400 30 -126 57 -237 59 -245 2 -8 20 -80 39 -160 20 -80 38 -154
40 -165 4 -20 107 -443 126 -520 16 -61 17 -66 33 -135 9 -36 39 -159 67 -275
29 -115 53 -217 55 -225 2 -8 8 -35 15 -60 7 -25 13 -52 15 -60 2 -8 13 -55
25 -105 12 -49 23 -97 25 -105 2 -8 29 -118 60 -245 31 -126 59 -238 61 -247
2 -10 6 -26 8 -35 2 -10 20 -85 41 -168 74 -306 97 -400 100 -415 2 -8 11 -44
20 -80 9 -36 18 -72 20 -80 2 -8 13 -55 25 -105 12 -49 23 -97 25 -105 2 -8
25 -100 50 -204 26 -105 48 -197 50 -205 3 -17 94 -390 237 -971 49 -201 92
-374 94 -385 3 -11 9 -38 14 -60 5 -22 20 -87 35 -145 14 -58 28 -116 31 -130
3 -14 26 -106 50 -205 25 -99 48 -191 50 -205 3 -14 14 -59 24 -100 11 -41 42
-167 69 -280 67 -275 119 -489 186 -765 31 -126 58 -237 60 -245 1 -8 8 -33
13 -55 6 -22 13 -51 16 -65 2 -14 36 -153 75 -310 38 -157 84 -343 101 -415
91 -380 111 -463 120 -495 6 -19 17 -64 26 -100 63 -269 106 -435 113 -440 12
-7 349 -6 356 1 3 3 -6 48 -19 100 -24 95 -87 354 -90 373 -1 6 -5 20 -9 31
-3 11 -8 31 -11 45 -2 14 -23 102 -46 195 -23 94 -43 177 -45 185 -2 8 -29
119 -60 245 -31 127 -59 241 -61 255 -3 14 -9 39 -14 55 -5 17 -12 41 -14 55
-3 14 -10 43 -16 65 -10 41 -109 448 -115 475 -2 8 -20 80 -39 160 -20 80 -38
154 -40 165 -2 11 -9 40 -16 65 -7 25 -13 52 -15 60 -2 8 -15 62 -29 120 -71
295 -159 657 -182 749 -15 57 -27 108 -28 115 -2 6 -6 22 -9 36 -17 62 -78
317 -81 336 -2 12 -11 48 -20 80 -9 32 -29 115 -45 184 -17 69 -58 238 -91
375 -34 138 -64 260 -66 271 -2 12 -27 113 -55 225 -27 112 -63 260 -80 329
-16 69 -32 136 -36 150 -8 34 -7 29 -43 175 -17 72 -49 204 -72 295 -22 91
-42 173 -44 183 -6 24 -10 42 -29 117 -8 36 -18 74 -20 85 -3 11 -12 49 -21
84 -9 36 -17 72 -19 80 -2 9 -22 90 -44 180 -23 91 -43 174 -45 185 -3 12 -14
59 -26 106 -11 47 -23 94 -25 106 -6 27 -159 652 -271 1107 -2 9 -6 27 -9 40
-3 12 -16 67 -29 122 -14 55 -36 147 -50 205 -14 58 -55 227 -91 375 -61 250
-122 500 -130 535 -2 8 -20 80 -39 160 -20 79 -38 154 -40 166 -2 12 -11 48
-20 80 -14 53 -44 177 -50 207 -2 7 -6 23 -10 37 l-7 25 -164 0 c-90 0 -172
-2 -183 -5z"/>
<path d="M1448 22612 c-13 -3 -11 -21 18 -135 18 -73 33 -133 33 -135 1 -8 17
-74 72 -297 33 -137 62 -257 64 -265 5 -22 38 -162 116 -480 38 -157 76 -314
85 -350 8 -36 19 -81 24 -100 9 -33 138 -559 145 -590 1 -8 8 -33 14 -55 6
-22 12 -49 14 -60 2 -11 7 -31 10 -45 11 -43 78 -317 82 -337 2 -10 27 -112
55 -228 28 -115 69 -282 90 -370 21 -88 66 -270 99 -405 33 -135 72 -294 86
-355 15 -60 28 -117 30 -125 2 -8 29 -118 60 -245 31 -126 72 -295 91 -375 19
-80 49 -199 65 -265 16 -66 31 -129 34 -140 2 -11 18 -76 35 -145 17 -69 33
-136 36 -150 5 -24 29 -120 94 -381 16 -64 31 -127 34 -140 4 -22 19 -86 32
-134 3 -11 7 -29 9 -40 3 -11 30 -121 60 -245 31 -124 58 -236 61 -250 3 -14
11 -50 19 -80 17 -62 125 -509 156 -640 11 -47 24 -101 29 -120 6 -19 28 -111
51 -205 22 -93 58 -240 79 -326 22 -86 41 -167 44 -180 2 -13 12 -53 21 -89 9
-36 18 -72 20 -80 2 -8 13 -55 25 -105 12 -49 23 -97 25 -105 2 -8 13 -53 25
-100 12 -47 23 -92 25 -101 2 -8 10 -44 19 -80 9 -35 18 -73 20 -84 3 -11 14
-58 26 -105 11 -47 23 -95 26 -107 2 -12 45 -188 94 -390 49 -202 92 -378 95
-390 5 -21 11 -23 85 -23 44 -1 622 -1 1285 -1 663 0 1218 0 1233 1 25 0 32 8
64 78 20 42 80 167 133 277 53 110 110 227 125 260 15 33 63 132 105 220 43
88 101 210 130 270 29 61 85 178 125 260 40 83 89 186 110 230 37 78 94 197
240 500 40 83 89 186 110 230 21 44 77 161 125 260 48 99 104 216 125 260 21
44 73 152 115 240 43 88 97 201 120 250 24 50 75 158 115 240 40 83 96 200
125 260 80 167 180 375 247 515 83 172 175 364 238 495 29 61 82 171 118 245
36 74 66 137 67 140 0 3 29 64 64 135 35 72 83 171 106 220 24 50 72 151 108
225 35 74 93 194 127 265 34 72 92 191 127 265 81 168 173 360 223 465 21 44
74 154 118 245 44 91 103 215 132 275 63 132 153 320 245 510 79 164 170 353
230 480 24 50 41 92 39 94 -5 6 -2424 8 -2442 3 -7 -2 -32 -45 -56 -96 -24
-50 -72 -149 -106 -221 -34 -71 -92 -191 -127 -265 -36 -74 -91 -189 -123
-255 -32 -66 -88 -183 -125 -260 -71 -148 -143 -298 -230 -480 -69 -145 -157
-327 -240 -500 -164 -340 -210 -436 -250 -520 -23 -49 -75 -157 -115 -240
-123 -255 -201 -416 -245 -510 -43 -90 -117 -245 -235 -490 -34 -71 -94 -195
-132 -275 -39 -80 -87 -181 -108 -225 -20 -44 -69 -145 -107 -225 -95 -196
-220 -455 -273 -567 -25 -51 -47 -93 -50 -93 -3 0 -16 44 -29 98 -25 103 -135
555 -196 807 -21 83 -38 155 -39 160 -2 6 -6 21 -9 35 -3 14 -20 81 -36 150
-17 69 -51 211 -76 315 -26 105 -48 197 -50 205 -2 8 -17 70 -34 137 -17 67
-32 130 -34 140 -2 10 -7 29 -10 43 -4 14 -27 111 -53 215 -25 105 -72 298
-104 430 -69 281 -121 494 -125 515 -8 37 -87 359 -95 390 -6 19 -30 121 -55
225 -59 245 -114 471 -126 515 -8 31 -105 430 -114 470 -2 8 -10 42 -19 76 -8
33 -17 69 -19 80 -2 10 -7 30 -10 44 -4 14 -29 117 -56 230 -28 113 -75 309
-106 435 -31 127 -58 237 -60 245 -2 8 -11 47 -20 85 -9 39 -18 77 -20 85 -2
8 -36 146 -75 305 -39 160 -82 340 -97 400 -14 61 -30 114 -34 119 -7 8 -2401
16 -2441 8z"/>
<path d="M7419 20872 c-19 -3 -12 9 -229 -447 -26 -55 -85 -176 -130 -270 -45
-93 -104 -215 -130 -270 -121 -254 -172 -359 -228 -475 -33 -69 -89 -186 -125
-260 -35 -74 -89 -187 -120 -250 -30 -63 -83 -173 -117 -245 -35 -71 -89 -185
-121 -252 -184 -384 -368 -766 -489 -1018 -108 -225 -130 -273 -130 -290 0 -9
16 -80 36 -158 42 -167 39 -152 49 -199 5 -28 12 -38 26 -38 19 0 68 93 229
435 21 44 70 148 110 230 40 83 96 200 125 260 29 61 83 173 120 250 37 77 86
181 110 230 24 50 84 176 135 280 51 105 105 217 120 250 15 33 63 132 105
220 43 88 101 210 130 270 78 163 226 472 345 720 74 154 156 326 233 485 30
63 96 201 147 305 103 213 113 235 102 236 -24 2 -291 4 -303 1z"/>
<path d="M10944 20865 c-7 -5 -32 -50 -55 -100 -23 -49 -84 -177 -135 -284
-52 -106 -94 -195 -94 -196 0 -2 -48 -101 -106 -222 -59 -120 -126 -258 -149
-308 -56 -119 -147 -307 -230 -480 -105 -218 -165 -346 -165 -353 0 -4 378 -7
841 -7 l841 0 -7 -45 c-4 -25 -8 -54 -10 -65 -13 -76 -57 -325 -61 -345 -2
-14 -7 -41 -10 -60 -3 -19 -7 -42 -9 -50 -2 -8 -6 -28 -9 -45 -8 -48 -45 -258
-50 -280 -3 -18 -7 -39 -22 -130 -5 -30 -33 -186 -38 -215 -3 -14 -12 -65 -20
-115 -9 -49 -18 -101 -21 -115 -3 -14 -8 -41 -10 -60 -8 -53 -22 -129 -60
-340 -3 -14 -12 -65 -20 -115 -9 -49 -22 -124 -30 -165 -8 -41 -17 -95 -20
-120 -4 -25 -10 -63 -15 -85 -5 -22 -14 -71 -21 -110 -15 -95 -17 -105 -24
-140 -3 -16 -7 -43 -10 -60 -3 -16 -7 -41 -10 -55 -3 -14 -25 -140 -50 -280
-25 -140 -47 -266 -49 -280 -3 -14 -7 -41 -10 -60 -3 -19 -10 -60 -16 -90 -6
-30 -13 -71 -16 -90 -3 -19 -8 -48 -11 -65 -7 -32 -8 -36 -19 -105 -4 -25 -8
-47 -9 -50 -1 -3 -5 -27 -10 -55 -4 -27 -9 -59 -11 -70 -9 -46 -35 -193 -40
-225 -3 -19 -7 -42 -9 -50 -3 -8 -7 -32 -11 -54 -3 -21 -8 -48 -10 -60 -2 -11
-20 -113 -39 -226 -20 -113 -42 -239 -50 -280 -8 -41 -16 -91 -19 -110 -3 -19
-12 -71 -20 -115 -9 -44 -18 -98 -22 -120 -3 -22 -19 -110 -34 -195 -16 -85
-32 -175 -35 -200 -3 -25 -8 -52 -10 -60 -2 -8 -7 -31 -10 -50 -3 -19 -8 -46
-10 -60 -8 -36 -12 -59 -20 -110 -4 -25 -9 -54 -11 -65 -3 -11 -7 -35 -10 -54
-3 -18 -8 -43 -10 -55 -4 -21 -10 -57 -18 -109 -3 -15 -10 -53 -16 -85 -5 -31
-12 -70 -15 -87 -3 -16 -13 -72 -22 -122 -9 -51 -14 -95 -11 -98 4 -4 1920 -9
2174 -5 l31 0 16 98 c9 53 19 108 22 122 3 14 12 63 20 110 8 47 17 94 19 105
2 11 7 43 11 70 5 28 9 52 10 55 0 3 5 28 10 55 5 28 9 52 10 55 1 3 7 39 14
80 7 41 15 86 17 100 2 14 7 41 10 60 3 19 10 54 15 78 5 23 12 59 15 80 2 20
11 73 19 117 30 167 47 261 49 280 2 11 10 58 19 105 16 86 87 488 92 525 3
22 49 277 65 365 24 127 82 457 86 485 2 17 6 41 9 55 3 14 12 66 21 115 20
120 21 124 29 170 4 22 9 47 10 55 2 8 10 53 18 100 9 47 18 101 21 120 3 19
8 49 11 65 8 41 33 183 40 220 3 17 12 71 21 120 9 50 18 104 21 120 2 17 6
41 9 55 3 14 14 77 25 140 11 63 27 153 35 200 9 47 18 94 20 105 1 11 11 63
20 115 9 52 18 104 19 115 3 16 21 124 60 345 3 14 7 36 10 50 6 32 23 124 30
170 5 31 12 72 20 120 2 8 10 53 19 100 8 47 17 96 20 110 9 53 16 96 20 123
3 15 7 35 10 45 2 9 7 39 11 66 3 27 8 52 9 55 2 3 7 26 10 51 3 25 19 119 36
208 16 90 30 171 30 180 0 16 76 17 1018 16 559 0 1023 2 1030 4 6 2 12 8 12
12 0 4 39 88 86 186 174 361 227 471 264 549 21 44 73 152 115 240 43 88 99
205 125 260 68 144 145 304 244 509 48 99 85 184 83 190 -5 14 -5915 15 -5933
1z"/>
<path d="M17268 20863 c-6 -7 -53 -102 -105 -210 -52 -109 -122 -254 -155
-323 -33 -69 -80 -165 -103 -215 -23 -49 -75 -157 -115 -240 -108 -223 -198
-410 -240 -500 -21 -44 -71 -150 -112 -235 -102 -211 -106 -221 -112 -255 -5
-37 -41 -241 -62 -350 -8 -44 -16 -96 -19 -115 -2 -19 -13 -82 -24 -140 -17
-93 -60 -332 -77 -430 -3 -19 -12 -71 -20 -115 -8 -44 -17 -93 -19 -110 -3
-16 -7 -41 -10 -55 -3 -14 -19 -106 -36 -204 -17 -99 -33 -189 -35 -200 -2
-12 -7 -37 -10 -56 -4 -19 -8 -44 -11 -55 -2 -11 -6 -36 -9 -55 -3 -19 -14
-84 -25 -145 -11 -60 -22 -126 -25 -145 -3 -19 -8 -44 -11 -54 -3 -11 -7 -34
-9 -52 -1 -17 -10 -65 -18 -105 -8 -41 -18 -96 -22 -124 -3 -27 -7 -52 -9 -55
-2 -3 -6 -30 -10 -60 -4 -30 -9 -58 -11 -61 -1 -3 -8 -34 -14 -70 -5 -35 -12
-77 -15 -94 -28 -150 -55 -306 -60 -335 -3 -19 -16 -96 -30 -170 -28 -157 -81
-459 -90 -510 -3 -19 -12 -71 -20 -115 -8 -44 -22 -120 -30 -170 -9 -49 -18
-101 -20 -115 -3 -14 -18 -101 -35 -195 -32 -187 -57 -329 -64 -360 -6 -33
-20 -109 -22 -120 -3 -32 -21 -138 -29 -175 -7 -32 -11 -54 -20 -110 -4 -25
-9 -54 -11 -65 -3 -11 -7 -36 -10 -55 -3 -19 -9 -57 -14 -85 -6 -27 -21 -113
-35 -190 -13 -77 -27 -153 -30 -170 -3 -16 -8 -46 -11 -65 -4 -30 -29 -170
-39 -221 -2 -9 -6 -32 -9 -50 -3 -19 -8 -44 -10 -56 -3 -11 -8 -43 -12 -70 -5
-26 -9 -50 -9 -53 -1 -3 -5 -25 -9 -50 -5 -25 -10 -53 -12 -62 -2 -15 5 -18
39 -19 235 -4 2427 0 2434 4 6 4 14 28 18 54 13 81 14 86 24 148 6 33 13 71
16 85 3 14 8 41 11 60 2 19 13 82 24 140 11 58 31 170 45 250 14 80 27 156 30
170 2 14 11 66 20 115 20 116 22 130 45 255 11 58 22 121 25 140 3 19 10 58
15 85 5 28 12 66 15 85 6 38 23 132 29 166 2 12 7 39 10 60 8 50 43 244 56
309 5 28 19 104 30 170 21 124 22 130 40 230 5 33 13 74 15 90 3 17 10 53 15
80 5 28 12 68 16 90 3 22 7 47 9 55 2 8 7 31 10 50 5 29 19 113 50 288 2 13
10 57 16 98 l13 75 139 -3 140 -3 43 -180 c24 -99 48 -196 54 -215 5 -19 23
-93 40 -165 17 -71 34 -146 40 -165 5 -19 25 -100 44 -180 20 -80 60 -248 91
-375 31 -126 58 -239 61 -250 2 -11 17 -74 34 -140 16 -66 61 -250 100 -410
38 -159 95 -391 125 -515 30 -124 77 -319 105 -435 28 -115 75 -309 105 -430
30 -121 70 -285 89 -365 19 -80 60 -248 91 -375 31 -126 58 -239 61 -251 2
-11 22 -94 45 -185 22 -90 42 -171 44 -179 2 -8 13 -55 25 -105 12 -49 23 -97
25 -105 2 -8 17 -71 34 -139 17 -68 31 -126 31 -127 0 -2 554 -4 1230 -4 677
0 1230 2 1230 5 0 2 -25 107 -55 232 -31 125 -62 257 -71 293 -8 36 -19 83
-25 104 -6 22 -12 46 -14 55 -7 36 -27 117 -75 316 -29 116 -53 217 -55 225
-3 14 -20 83 -115 475 -17 72 -33 137 -35 145 -11 52 -30 131 -80 335 -31 127
-69 286 -86 355 -16 69 -43 179 -59 245 -16 66 -52 215 -80 330 -46 194 -58
244 -66 270 -2 6 -6 24 -9 40 -3 17 -8 38 -11 47 -3 9 -7 25 -9 35 -4 21 -126
525 -191 793 -25 102 -47 192 -49 200 -3 15 -15 64 -91 380 -25 102 -56 232
-70 290 -34 144 -113 469 -121 500 -3 14 -7 32 -9 40 -2 8 -8 33 -13 55 -12
43 -122 499 -147 603 l-15 63 372 557 c205 306 580 868 834 1247 254 380 681
1017 948 1418 l487 727 -1231 -2 -1232 -3 -322 -480 c-176 -264 -557 -833
-846 -1265 -288 -432 -526 -787 -529 -790 -3 -3 -70 -103 -149 -222 l-144
-218 -145 0 -145 0 8 48 c4 26 8 56 10 67 2 11 9 47 14 80 6 33 13 71 16 85 3
14 8 41 11 60 2 19 8 49 11 65 3 17 7 39 8 50 2 11 10 58 18 105 26 136 27
143 33 179 3 18 8 43 10 55 2 11 7 39 9 61 3 22 8 47 10 55 2 8 7 31 10 50 3
19 12 71 20 115 8 44 17 97 20 119 3 21 7 41 9 45 2 3 7 29 10 56 4 28 9 57
11 65 2 8 7 31 10 50 3 19 26 148 50 285 24 138 58 329 74 425 33 187 34 193
56 315 7 44 16 94 18 110 3 17 14 82 26 145 42 231 49 275 45 279 -3 3 -426 5
-940 5 -736 1 -938 -2 -946 -11z"/>
<path d="M20128 20863 c-8 -10 -213 -315 -455 -679 l-441 -660 -12 -75 c-7
-40 -14 -81 -15 -89 -7 -39 -19 -106 -20 -110 -1 -3 -5 -25 -9 -50 -4 -25 -23
-130 -42 -235 -46 -259 -47 -265 -35 -265 8 0 649 947 696 1028 6 9 12 19 15
22 4 4 429 637 479 713 8 12 72 108 143 214 70 106 128 194 128 197 0 4 -94 6
-208 6 -187 0 -211 -2 -224 -17z"/>
<path d="M10955 18594 c-3 -13 -8 -36 -11 -51 -7 -34 -8 -39 -33 -188 -12 -66
-23 -131 -26 -145 -3 -14 -7 -36 -10 -50 -44 -259 -76 -440 -80 -460 -3 -20
-59 -331 -81 -455 -17 -99 -64 -365 -69 -395 -3 -19 -15 -84 -26 -145 -10 -60
-22 -123 -25 -140 -2 -16 -11 -66 -19 -110 -8 -44 -17 -96 -20 -115 -9 -50
-34 -191 -39 -215 -2 -11 -7 -40 -10 -65 -3 -25 -8 -56 -11 -70 -7 -29 -52
-279 -60 -330 -16 -101 -26 -159 -35 -200 -8 -41 -52 -290 -65 -367 -13 -82
-16 -99 -20 -113 -2 -8 -6 -33 -10 -54 -5 -35 -38 -227 -49 -282 -3 -12 -7
-39 -10 -60 -4 -22 -11 -61 -16 -89 -5 -27 -12 -63 -15 -80 -3 -16 -18 -106
-35 -200 -16 -93 -32 -187 -36 -209 -3 -21 -8 -48 -10 -60 -3 -11 -9 -48 -15
-81 -15 -91 -17 -104 -34 -185 -2 -14 -7 -41 -10 -60 -7 -45 -25 -148 -31
-180 -7 -37 -45 -250 -50 -285 -3 -16 -7 -41 -10 -55 -3 -14 -7 -38 -9 -55 -3
-16 -12 -68 -20 -115 -35 -184 -44 -237 -50 -275 -3 -22 -7 -47 -10 -55 -2 -8
-6 -33 -9 -55 -4 -22 -8 -51 -11 -65 l-5 -25 160 1 c88 1 166 2 174 3 7 1 16
17 19 39 13 83 18 110 32 187 14 78 71 405 80 455 8 47 25 145 29 166 2 12 7
37 10 55 3 19 7 43 10 54 2 11 7 40 11 65 4 25 9 54 11 65 2 11 8 45 14 75 13
78 76 434 100 570 11 63 23 131 26 150 3 19 11 67 19 105 8 39 16 88 20 110 3
23 8 52 10 65 3 14 14 77 25 140 11 63 22 124 24 135 3 18 13 72 22 120 15 82
55 317 60 345 3 19 9 58 14 85 6 28 17 88 25 135 8 47 17 96 19 110 3 14 7 41
10 60 3 19 8 46 11 60 3 14 10 52 15 85 5 33 12 71 15 85 2 13 7 42 11 64 3
22 7 43 9 46 1 3 6 25 9 50 7 51 9 64 36 210 11 58 22 119 25 135 2 17 7 39 9
50 2 11 7 43 11 70 5 28 9 52 10 55 1 3 5 30 10 60 5 30 9 57 10 60 4 14 49
266 70 390 3 19 33 188 66 375 34 187 67 376 74 420 14 81 42 240 51 285 2 14
7 41 10 60 2 19 9 58 14 85 5 28 12 66 15 85 3 19 8 42 10 50 2 8 6 32 9 52
l6 37 -170 0 -170 0 -5 -25z"/>
<path d="M15595 18608 c-2 -7 -20 -105 -39 -218 -46 -261 -55 -315 -66 -370
-5 -25 -12 -61 -14 -80 -3 -19 -13 -73 -21 -120 -9 -47 -18 -101 -21 -120 -2
-19 -6 -42 -9 -50 -2 -8 -7 -31 -10 -50 -10 -61 -52 -300 -59 -337 -3 -11 -8
-43 -12 -70 -5 -26 -9 -50 -9 -53 -1 -3 -5 -27 -10 -55 -4 -27 -9 -59 -11 -70
-5 -22 -29 -158 -39 -215 -3 -19 -17 -96 -30 -170 -13 -74 -27 -151 -30 -170
-3 -19 -8 -46 -10 -60 -11 -52 -15 -75 -20 -115 -3 -22 -8 -47 -10 -55 -2 -8
-7 -31 -10 -50 -5 -30 -17 -101 -40 -225 -3 -16 -18 -106 -35 -200 -16 -93
-32 -181 -34 -195 -3 -14 -10 -52 -15 -85 -6 -33 -15 -85 -20 -115 -34 -187
-42 -234 -47 -268 -3 -20 -7 -44 -9 -52 -3 -8 -7 -32 -11 -54 -3 -21 -8 -48
-10 -60 -2 -11 -6 -32 -9 -46 -3 -21 -155 -887 -171 -975 -2 -16 -11 -66 -19
-110 -8 -44 -17 -93 -20 -110 -2 -16 -7 -40 -9 -51 -2 -12 -7 -37 -10 -55 -3
-19 -7 -43 -10 -54 -3 -18 -7 -39 -22 -130 -6 -40 -33 -191 -37 -210 -4 -18
-10 -53 -23 -135 -3 -14 -12 -63 -20 -110 -19 -102 -19 -102 -38 -215 -9 -49
-18 -99 -20 -110 -2 -11 -7 -40 -11 -65 -3 -25 -8 -56 -11 -70 l-3 -25 162 1
c195 2 184 1 184 17 0 6 3 26 6 42 3 17 17 95 31 175 14 80 28 156 30 170 3
14 10 54 16 90 22 130 138 787 145 820 3 14 7 39 10 55 2 17 8 55 14 85 5 30
12 71 16 90 8 47 45 259 50 288 5 30 24 132 29 157 2 11 7 40 11 65 3 25 13
77 20 115 7 39 16 88 19 110 7 44 16 99 23 130 6 29 33 184 39 220 2 17 6 41
9 55 3 14 7 39 10 55 3 17 7 40 9 51 2 12 7 37 10 55 3 19 17 99 31 179 14 80
28 161 31 180 3 19 7 42 10 51 2 8 13 67 23 130 17 102 43 250 56 319 9 44 44
244 50 280 5 33 41 231 49 275 2 11 7 40 11 65 4 25 9 54 11 65 5 26 6 29 59
330 25 143 47 270 49 281 2 12 7 39 11 60 3 22 10 59 15 84 4 25 15 88 24 140
9 52 18 106 21 120 3 14 8 41 11 60 2 19 13 82 24 140 11 58 31 173 45 255 14
83 28 159 29 170 2 11 7 38 11 60 4 22 9 47 11 56 4 15 -13 17 -166 18 -129 1
-172 -2 -175 -11z"/>
<path d="M21713 17850 c-69 -96 -143 -197 -163 -225 -20 -27 -77 -106 -126
-175 -101 -142 -96 -135 -127 -175 -12 -16 -73 -100 -134 -186 -112 -156 -112
-156 -102 -194 6 -21 12 -45 14 -54 15 -73 174 -728 181 -745 5 -13 129 -14
997 -13 l992 2 57 115 c62 126 177 365 243 505 83 176 153 322 223 465 73 152
146 303 242 505 57 119 161 335 165 345 2 3 -523 5 -1167 5 l-1170 0 -125
-175z"/>
<path d="M24530 17978 c-13 -29 -65 -138 -116 -243 -50 -104 -112 -233 -137
-285 -25 -52 -75 -158 -112 -235 -161 -334 -297 -619 -355 -740 -26 -55 -75
-158 -109 -228 -34 -71 -66 -139 -71 -151 l-8 -23 806 -1 c444 0 824 -1 844
-1 33 -1 36 -4 32 -23 -2 -13 -7 -36 -9 -53 -3 -16 -14 -79 -25 -140 -10 -60
-22 -126 -25 -145 -3 -19 -10 -57 -15 -85 -5 -27 -11 -61 -14 -75 -2 -14 -9
-54 -16 -90 -6 -36 -13 -76 -15 -90 -3 -14 -9 -50 -15 -80 -5 -30 -12 -71 -15
-90 -3 -19 -10 -57 -15 -85 -5 -27 -12 -68 -16 -90 -3 -22 -7 -47 -9 -55 -2
-8 -7 -31 -10 -50 -3 -19 -10 -61 -16 -92 -5 -32 -12 -70 -15 -85 -3 -16 -11
-64 -19 -108 -8 -44 -17 -98 -21 -120 -3 -22 -12 -70 -19 -106 -8 -36 -17 -87
-21 -115 -3 -27 -7 -51 -9 -54 -2 -3 -6 -30 -10 -60 -4 -30 -9 -58 -11 -61 -2
-3 -6 -26 -9 -50 -3 -24 -7 -51 -10 -59 -2 -8 -7 -31 -10 -50 -3 -19 -7 -46
-10 -60 -3 -14 -7 -41 -10 -60 -3 -19 -10 -57 -15 -85 -5 -27 -12 -66 -16 -85
-8 -50 -52 -300 -69 -395 -8 -44 -16 -91 -19 -105 -3 -14 -10 -52 -15 -85 -24
-145 -53 -310 -78 -440 -14 -77 -26 -151 -27 -165 l-1 -24 1090 -1 c600 -1
1097 2 1106 7 10 4 19 26 23 55 7 53 10 70 32 193 9 47 18 94 20 105 2 11 22
126 44 255 23 129 50 287 61 350 24 137 23 132 43 240 8 47 18 101 21 120 6
38 23 132 29 166 2 12 7 37 10 55 3 19 8 45 10 59 3 14 9 52 15 85 18 105 21
120 26 145 3 14 10 54 16 90 6 36 12 72 14 80 2 8 4 24 4 34 1 24 10 16 16
-13 2 -12 15 -59 28 -104 14 -45 27 -91 30 -102 8 -30 224 -780 246 -855 11
-36 28 -96 39 -135 11 -38 41 -140 65 -225 25 -85 47 -167 51 -181 3 -15 14
-28 23 -31 24 -5 381 -3 387 3 12 13 316 522 316 530 0 5 5 9 10 9 6 0 10 4
10 9 0 6 27 53 60 106 33 53 60 98 60 100 0 2 34 59 77 127 42 68 84 137 93
153 13 23 228 380 398 660 14 22 12 -1 -8 -115 -5 -30 -12 -73 -15 -95 -4 -22
-8 -47 -10 -55 -4 -13 -43 -237 -61 -349 -3 -18 -7 -42 -9 -51 -2 -10 -7 -40
-11 -67 -9 -54 -8 -48 -17 -88 -4 -16 -9 -46 -12 -65 -2 -19 -7 -46 -9 -60 -3
-14 -7 -41 -10 -60 -3 -19 -8 -47 -11 -62 -10 -57 -15 -85 -25 -143 -5 -33
-12 -71 -15 -85 -7 -40 -53 -311 -59 -350 -3 -19 -8 -46 -10 -60 -31 -162 -56
-314 -58 -346 l-3 -38 1093 -1 c602 0 1098 3 1104 6 7 5 33 138 72 369 3 19 8
46 11 60 2 13 7 40 10 60 3 20 8 47 10 60 3 14 7 39 10 55 2 17 6 39 8 50 5
23 14 76 22 125 3 19 11 62 17 95 6 33 12 69 13 80 2 11 15 88 29 170 15 83
29 164 32 180 2 17 20 118 39 225 19 107 48 276 65 375 16 99 32 191 35 205 3
14 7 40 10 57 2 18 13 83 24 145 11 62 22 124 25 138 2 14 7 41 10 60 3 19 8
49 11 65 3 17 8 48 11 70 3 22 7 46 10 54 3 8 7 30 10 50 5 36 21 129 28 166
2 11 11 65 21 120 9 55 36 213 60 350 24 138 47 272 51 300 3 27 10 59 14 70
4 11 8 22 8 25 -1 8 14 114 18 135 3 11 7 35 10 54 3 18 8 43 10 55 11 55 25
140 29 164 2 21 44 266 60 352 1 8 6 35 10 60 4 25 9 54 11 65 4 18 88 494 98
555 2 14 8 48 12 75 4 28 9 57 11 65 2 8 6 33 9 55 3 22 10 58 15 80 5 22 9
47 9 57 0 15 -81 16 -1105 16 l-1104 0 -53 -61 c-29 -34 -88 -102 -131 -152
-44 -49 -100 -115 -126 -145 -27 -30 -115 -131 -196 -225 -82 -93 -162 -186
-178 -205 -17 -19 -58 -66 -92 -105 -55 -62 -246 -282 -300 -346 -29 -33 -235
-269 -307 -350 -32 -37 -68 -79 -79 -94 -25 -31 -34 -25 -47 30 -6 22 -35 139
-67 260 -31 121 -58 227 -60 235 -2 8 -10 40 -19 70 -8 30 -46 179 -85 330
-39 151 -91 354 -116 450 -25 96 -53 205 -62 243 l-16 67 -1637 0 -1636 0 -24
-52z"/>
<path d="M28839 17996 c-19 -18 -54 -55 -78 -82 -48 -54 -181 -201 -221 -244
-55 -59 -199 -217 -234 -257 -21 -23 -35 -46 -32 -51 3 -5 7 -19 10 -33 2 -13
23 -96 46 -184 24 -88 47 -181 53 -207 5 -28 15 -48 23 -48 7 0 99 105 204
233 105 127 200 242 210 254 11 13 47 57 82 99 34 42 122 149 195 238 232 280
253 305 253 311 0 3 -108 5 -239 5 l-239 0 -33 -34z"/>
<path d="M24560 15770 c-4 -3 -13 -39 -20 -80 -6 -41 -15 -91 -20 -110 -5 -19
-11 -56 -15 -82 -3 -26 -7 -53 -10 -60 -2 -7 -6 -29 -9 -48 -3 -19 -17 -100
-31 -180 -14 -80 -27 -158 -30 -175 -3 -16 -10 -52 -15 -80 -5 -27 -12 -63
-14 -80 -11 -70 -17 -101 -21 -115 -2 -8 -6 -33 -10 -55 -5 -39 -14 -91 -22
-130 -2 -11 -6 -35 -9 -54 -3 -18 -8 -43 -10 -55 -2 -11 -7 -37 -10 -56 -3
-19 -14 -80 -24 -135 -10 -55 -21 -118 -25 -140 -3 -22 -7 -47 -10 -55 -2 -8
-6 -33 -10 -55 -5 -34 -44 -257 -61 -350 -18 -99 -74 -417 -79 -455 -4 -24 -8
-47 -10 -50 -2 -3 -6 -26 -10 -50 -3 -25 -12 -81 -20 -125 -8 -44 -16 -91 -19
-105 -2 -14 -7 -36 -10 -50 -3 -14 -8 -43 -11 -64 -3 -21 -7 -48 -10 -60 -5
-23 -13 -64 -21 -116 -3 -19 -7 -46 -10 -60 -3 -14 -7 -38 -9 -55 l-5 -30 163
1 c195 2 184 1 184 17 0 6 3 26 6 42 3 17 18 98 32 180 15 83 35 200 46 260
11 61 22 126 24 145 3 19 10 55 15 80 5 25 16 86 25 135 8 50 17 100 19 111 2
12 7 37 10 55 3 19 14 86 26 149 11 63 22 126 24 140 9 47 65 365 70 395 14
75 54 301 61 345 3 19 10 58 15 85 5 28 12 65 15 83 3 17 7 47 10 65 3 17 8
43 10 57 3 14 8 36 10 50 3 14 12 63 20 110 7 47 34 200 59 340 25 140 48 269
51 285 3 17 8 41 10 55 12 60 18 110 16 125 -1 10 -315 15 -331 5z"/>
<path d="M18421 14944 c-1 -6 -16 -98 -35 -205 -19 -107 -37 -210 -40 -229 -3
-19 -8 -46 -11 -60 -3 -14 -10 -52 -15 -85 -14 -85 -19 -110 -35 -195 -42
-222 -43 -212 15 -445 28 -115 72 -293 96 -395 25 -102 63 -259 85 -350 23
-91 42 -172 44 -180 2 -8 22 -89 44 -179 23 -91 43 -174 45 -185 3 -12 12 -50
21 -86 9 -36 18 -74 20 -85 3 -12 43 -178 90 -370 47 -193 101 -413 120 -490
19 -77 58 -241 89 -365 30 -124 71 -296 92 -382 l38 -158 198 0 c109 0 198 4
198 8 0 13 -74 329 -180 772 -28 113 -66 273 -85 355 -20 83 -47 195 -60 250
-19 79 -87 368 -111 468 -2 9 -6 25 -8 35 -3 9 -23 96 -46 192 -22 96 -59 249
-81 340 -22 91 -43 176 -45 189 -3 14 -23 99 -45 190 -22 91 -46 193 -54 226
-8 33 -33 137 -55 230 -23 94 -54 226 -70 295 -16 69 -47 202 -70 295 -22 94
-50 211 -61 260 -11 50 -25 101 -30 115 -4 14 -11 36 -13 50 -15 79 -43 190
-45 174z"/>
</g>
</svg>
